<?xml version="1.0" standalone="no"?>
<!DOCTYPE svg PUBLIC "-//W3C//DTD SVG 20010904//EN"
 "http://www.w3.org/TR/2001/REC-SVG-20010904/DTD/svg10.dtd">
<svg version="1.0" xmlns="http://www.w3.org/2000/svg"
 width="2000.000000pt" height="547.000000pt" viewBox="0 0 2000.000000 547.000000"
 preserveAspectRatio="xMidYMid meet">

<g transform="translate(0.000000,547.000000) scale(0.100000,-0.100000)"
fill="#FFFFFF" stroke="none">
<path d="M1669 5450 c-26 -4 -55 -12 -65 -18 -11 -5 -46 -15 -79 -22 -33 -7
-64 -16 -70 -20 -17 -14 -176 -91 -217 -106 -22 -8 -61 -31 -87 -52 -25 -22
-57 -45 -71 -52 -23 -12 -24 -14 -5 -20 13 -5 31 -1 52 12 81 49 365 77 663
66 63 -2 121 -8 128 -12 8 -5 60 -12 115 -17 56 -6 132 -12 170 -16 49 -4 67
-10 67 -20 0 -13 -27 -15 -172 -13 -202 1 -902 -18 -937 -26 -22 -5 -12 -17
105 -132 71 -70 150 -142 175 -159 25 -17 59 -49 74 -70 16 -21 75 -84 132
-139 97 -96 106 -108 158 -219 37 -80 57 -136 61 -174 3 -31 12 -78 20 -105 8
-27 14 -68 14 -90 0 -23 5 -58 11 -79 6 -22 12 -112 13 -200 2 -127 7 -175 21
-221 l19 -58 -31 -57 c-30 -54 -33 -56 -84 -65 -62 -10 -117 6 -209 60 -30 18
-74 38 -98 44 -24 6 -65 26 -90 44 -26 19 -97 55 -158 80 -61 26 -137 63 -170
82 -32 19 -93 51 -134 71 -99 47 -176 127 -267 274 -66 106 -72 121 -91 219
-36 187 -36 190 3 363 38 172 68 257 109 310 14 18 35 55 47 83 12 27 35 68
51 92 17 24 27 46 24 49 -21 21 -214 -134 -237 -190 -7 -17 -24 -48 -37 -69
-20 -30 -25 -56 -32 -155 -12 -165 -29 -252 -56 -288 -12 -16 -28 -52 -35 -80
-7 -27 -29 -84 -50 -125 -20 -41 -49 -115 -64 -165 -31 -103 -73 -191 -105
-220 -33 -30 -70 -109 -96 -206 -13 -48 -36 -107 -52 -133 -16 -25 -32 -64
-36 -87 -4 -22 -15 -57 -25 -77 -14 -28 -17 -53 -14 -102 3 -36 -2 -118 -11
-182 -13 -101 -13 -123 -1 -165 22 -76 27 -135 16 -182 -7 -32 -6 -61 5 -110
7 -36 14 -96 14 -133 0 -42 7 -82 19 -110 10 -24 26 -86 36 -138 10 -52 24
-108 32 -123 8 -16 28 -87 44 -159 34 -152 77 -236 218 -420 35 -45 74 -107
87 -136 31 -69 109 -172 157 -208 21 -16 51 -50 68 -77 16 -26 36 -50 44 -53
8 -4 48 -46 88 -94 75 -90 116 -129 177 -170 19 -13 78 -64 130 -115 105 -101
165 -136 345 -205 136 -53 181 -67 268 -85 39 -9 87 -27 110 -43 23 -16 63
-34 90 -41 59 -14 146 -70 171 -109 11 -16 38 -39 61 -50 23 -11 70 -44 105
-73 l63 -52 75 2 c110 3 132 15 161 92 19 51 22 70 15 103 -13 56 -2 127 37
248 25 78 41 112 70 143 30 33 44 61 67 142 19 64 46 129 75 176 24 40 49 96
55 123 6 27 25 83 42 124 17 41 42 120 56 175 14 55 40 136 58 180 19 44 36
98 40 120 4 22 13 69 21 105 8 36 21 119 29 185 9 66 23 139 33 163 14 36 15
52 6 95 -8 41 -7 60 4 92 11 30 15 89 14 247 0 190 -2 212 -24 277 -17 52 -22
82 -17 118 4 35 -1 68 -17 121 -13 40 -23 79 -23 86 0 7 -22 68 -50 135 -27
68 -54 147 -59 177 -7 36 -27 80 -60 132 -27 42 -54 96 -60 119 -6 23 -26 59
-44 80 -17 22 -50 72 -71 111 -24 44 -57 87 -83 108 -24 20 -66 68 -92 108
-27 40 -62 81 -78 91 -15 10 -66 55 -113 100 -92 89 -165 145 -251 193 -30 18
-64 45 -76 60 -13 18 -38 34 -66 41 -24 7 -73 35 -108 62 -35 28 -76 58 -91
67 -16 9 -28 20 -28 23 0 3 33 9 73 12 39 4 126 20 192 36 256 63 495 169 600
264 l58 53 -13 39 c-28 87 -91 128 -260 171 -124 32 -185 52 -240 79 -107 53
-417 90 -551 65z"/>
<path d="M964 5088 c-32 -10 -80 -74 -105 -138 -7 -19 -28 -55 -46 -80 -42
-60 -49 -79 -89 -253 -40 -173 -41 -225 -11 -367 21 -97 29 -113 92 -210 80
-121 150 -192 208 -211 22 -7 67 -31 100 -52 33 -21 121 -65 195 -98 75 -32
158 -75 186 -93 28 -19 71 -40 94 -46 24 -6 65 -24 91 -41 131 -80 213 -63
183 38 -16 57 -24 136 -27 279 -2 124 -23 290 -45 364 -5 19 -10 50 -10 68 0
18 -21 76 -50 135 -46 97 -57 111 -192 248 -79 79 -156 153 -173 164 -16 10
-83 74 -149 142 -82 85 -132 129 -163 143 -50 22 -46 22 -89 8z m147 -362 c18
-33 60 -104 94 -156 34 -52 72 -122 85 -155 13 -32 60 -118 103 -189 43 -72
88 -155 100 -185 11 -31 34 -78 52 -106 56 -89 97 -165 88 -165 -16 0 -144
122 -186 178 -62 82 -204 313 -226 369 -11 26 -48 109 -84 183 -63 132 -108
250 -122 320 l-7 35 35 -34 c20 -18 50 -61 68 -95z"/>
<path d="M10960 3080 l-165 -5 -3 -62 -3 -62 38 -7 c73 -13 68 17 71 -397 l3
-374 -53 -19 -53 -19 -3 -54 c-2 -36 1 -57 10 -62 7 -4 195 -8 419 -8 l407 -1
17 68 c19 77 38 248 29 274 -4 15 -17 18 -72 18 l-67 0 -45 -93 -45 -92 -146
-3 -147 -3 -3 43 c-2 24 -3 89 -1 146 l3 102 160 0 c184 0 173 -7 173 105 l1
70 -167 -3 -168 -2 0 134 0 134 53 3 c28 2 92 2 140 -1 l89 -5 33 -80 33 -80
68 0 69 0 6 80 c4 64 -13 240 -25 252 -5 5 -508 7 -656 3z"/>
<path d="M17737 3062 c-141 -49 -246 -167 -292 -327 -56 -189 -22 -421 77
-538 90 -108 178 -169 269 -186 229 -46 465 35 568 193 57 87 69 121 86 241
26 187 -2 318 -99 455 -97 138 -212 190 -414 190 -102 0 -127 -4 -195 -28z
m238 -146 c88 -27 155 -116 183 -241 20 -90 23 -259 5 -318 -42 -145 -134
-210 -253 -179 -144 37 -210 163 -211 396 0 120 11 186 44 251 23 46 37 59 92
85 48 24 77 25 140 6z"/>
<path d="M4494 3066 c-3 -7 -4 -35 -2 -62 l3 -49 52 -14 52 -14 0 -378 1 -378
-43 -12 c-60 -18 -67 -26 -67 -79 0 -26 6 -52 13 -57 14 -11 678 -16 751 -5
50 7 50 7 63 57 16 63 38 298 30 319 -5 12 -20 16 -64 16 l-58 -1 -55 -112
-55 -112 -124 -3 c-68 -1 -128 1 -133 6 -11 11 -12 722 -1 732 4 4 35 13 68
20 68 14 75 21 75 72 0 72 14 68 -256 68 -199 0 -246 -3 -250 -14z"/>
<path d="M5816 3068 c-3 -7 -6 -35 -9 -61 -5 -54 1 -60 71 -72 l42 -7 -2 -380
-3 -381 -44 -13 c-24 -7 -48 -19 -52 -26 -13 -20 -10 -94 4 -106 7 -6 98 -9
232 -8 l220 1 7 55 c8 65 1 75 -62 87 l-45 9 -3 381 -2 381 50 12 c56 13 64
27 58 96 l-3 39 -228 3 c-177 2 -228 0 -231 -10z"/>
<path d="M6746 3064 c-3 -9 -9 -89 -13 -178 -7 -185 -9 -181 77 -170 l47 6 46
95 47 94 60 -3 60 -3 1 -362 c1 -199 -2 -366 -5 -371 -3 -5 -23 -13 -43 -17
-66 -12 -73 -20 -73 -80 0 -49 2 -55 24 -61 38 -9 456 2 467 13 6 6 9 34 7 64
l-3 54 -55 10 -55 10 -6 95 c-4 52 -7 220 -7 372 l-1 277 45 7 c77 11 85 5
130 -103 l41 -98 59 3 c32 1 60 5 63 7 11 12 11 234 -1 290 l-13 60 -446 3
c-404 2 -447 1 -453 -14z"/>
<path d="M8106 3062 c-13 -39 -24 -220 -18 -277 8 -65 16 -72 93 -74 l36 -1
41 98 41 97 63 0 63 0 3 -366 2 -367 -57 -18 -58 -19 -3 -56 -3 -57 58 -6 c49
-4 219 -3 390 3 l41 1 7 51 c4 31 3 55 -3 61 -6 6 -34 16 -64 23 l-53 12 -3
371 -2 372 64 0 64 0 43 -91 c47 -98 60 -109 129 -109 25 0 40 5 44 16 17 43
-7 332 -28 346 -6 4 -208 8 -448 8 -412 0 -437 -1 -442 -18z"/>
<path d="M9480 3060 c-6 -12 -10 -40 -8 -63 3 -42 3 -42 53 -53 l50 -10 2
-381 2 -381 -48 -18 c-47 -17 -49 -19 -54 -62 -7 -67 -3 -72 67 -73 293 -6
729 -2 735 6 19 24 43 160 48 268 l6 117 -61 0 -62 0 -31 -62 c-17 -33 -47
-85 -66 -115 -35 -52 -37 -53 -83 -53 -26 0 -81 3 -123 6 l-77 7 0 362 0 361
67 20 68 19 9 48 c14 78 18 77 -250 77 -225 0 -234 -1 -244 -20z"/>
<path d="M12912 3072 c-9 -6 -12 -26 -10 -63 l3 -53 46 -13 46 -13 5 -258 c2
-141 2 -313 -1 -381 l-6 -124 -47 -14 -48 -14 0 -54 c0 -29 5 -57 10 -60 6 -3
183 -8 394 -11 322 -3 387 -2 399 10 22 22 47 161 50 276 l2 105 -60 3 -60 3
-42 -83 c-24 -46 -52 -98 -63 -115 l-20 -33 -119 0 c-85 0 -122 4 -128 13 -4
6 -8 171 -7 366 1 274 4 355 14 361 7 4 39 13 72 20 l59 13 -3 61 -3 61 -235
2 c-129 2 -241 -1 -248 -5z"/>
<path d="M14225 3070 c-4 -6 -9 -35 -12 -64 l-6 -54 57 -13 56 -12 1 -96 c3
-345 -1 -655 -8 -661 -4 -3 -26 -12 -49 -18 -40 -12 -41 -13 -47 -64 -4 -28
-2 -57 3 -63 7 -8 127 -12 419 -13 l409 -2 11 28 c18 45 29 112 37 216 8 115
7 116 -78 116 l-57 0 -41 -87 c-22 -48 -46 -91 -53 -95 -7 -4 -73 -8 -148 -8
-133 0 -137 1 -143 23 -8 29 -8 231 0 251 5 14 28 16 153 16 103 0 152 4 163
13 17 13 32 124 22 152 -5 13 -29 15 -165 13 -98 -1 -163 2 -169 8 -7 7 -10
58 -8 130 l3 119 110 5 c168 8 160 11 205 -86 l39 -84 58 0 c33 0 64 5 71 12
21 21 12 219 -14 311 -5 16 -33 17 -409 17 -265 0 -406 -4 -410 -10z"/>
<path d="M15596 3049 c-3 -17 -6 -47 -6 -65 0 -33 1 -33 60 -46 l60 -12 -5
-81 c-3 -44 -10 -129 -15 -190 -6 -60 -13 -193 -18 -295 l-7 -185 -51 -18
c-51 -18 -52 -19 -58 -69 -11 -77 -9 -78 173 -77 86 0 174 3 196 7 39 7 40 8
46 57 4 28 2 55 -3 60 -5 6 -32 15 -61 20 l-52 10 1 40 c3 123 24 488 29 493
3 3 6 3 8 1 5 -5 63 -167 94 -259 27 -79 80 -227 116 -322 20 -53 24 -56 60
-62 22 -4 67 -4 99 0 58 7 60 8 77 48 10 23 30 79 45 126 25 76 137 369 170
445 13 30 13 29 20 -37 4 -37 5 -76 1 -87 -3 -10 -1 -48 4 -82 5 -35 13 -116
17 -180 l7 -116 -49 -13 c-71 -19 -75 -25 -72 -89 l3 -56 230 0 230 0 3 62 3
62 -43 11 c-24 6 -48 13 -54 15 -7 2 -15 74 -23 197 -6 106 -14 218 -17 248
-2 30 -7 114 -10 187 l-7 132 49 14 c48 14 49 15 57 62 4 26 6 54 3 62 -4 10
-47 13 -208 13 l-203 0 -33 -93 c-18 -50 -46 -132 -62 -182 -15 -49 -44 -133
-63 -185 -19 -52 -43 -120 -52 -150 -23 -70 -26 -76 -36 -57 -5 8 -33 87 -63
174 -98 288 -156 455 -167 474 -9 18 -24 19 -213 19 l-203 0 -7 -31z"/>
<path d="M18934 3066 c-3 -7 -4 -35 -2 -62 l3 -49 51 -18 51 -18 5 -207 c2
-114 2 -283 -1 -376 l-6 -168 -45 -17 -45 -16 -3 -56 -3 -56 201 -7 c110 -4
205 -4 210 -1 6 3 10 33 10 65 0 57 -1 60 -27 66 -93 21 -88 17 -93 65 -3 24
-3 132 0 240 l5 196 100 -131 c55 -72 125 -167 155 -211 31 -44 93 -128 138
-187 l84 -108 78 0 c52 0 81 4 87 13 4 6 9 197 10 422 1 226 2 427 2 447 1 34
4 37 43 50 38 13 43 19 51 54 4 21 5 49 2 62 l-5 22 -198 -2 -197 -3 0 -59 0
-59 50 -16 50 -16 2 -245 2 -245 -22 29 c-12 16 -41 54 -65 85 -23 31 -69 94
-102 141 -32 47 -91 126 -129 175 -39 50 -90 118 -113 152 l-43 63 -143 0
c-112 0 -144 -3 -148 -14z"/>
</g>
</svg>
